<mxfile host="app.diagrams.net" modified="2024-04-15T11:55:39.818Z" agent="Mozilla/5.0 (Windows NT 10.0; Win64; x64) AppleWebKit/537.36 (KHTML, like Gecko) Chrome/123.0.0.0 Safari/537.36 Edg/123.0.0.0" etag="gYuJP65uNdcsE246QfKm" version="24.2.5" type="device">
  <diagram name="Page-1" id="c4acf3e9-155e-7222-9cf6-157b1a14988f">
    <mxGraphModel dx="1636" dy="981" grid="1" gridSize="10" guides="1" tooltips="1" connect="1" arrows="1" fold="1" page="1" pageScale="1" pageWidth="850" pageHeight="1100" background="none" math="0" shadow="0">
      <root>
        <mxCell id="0" />
        <mxCell id="1" parent="0" />
        <mxCell id="5_2LvWP8aWBhBdpa0Kzx-1" value="Socio" style="whiteSpace=wrap;html=1;align=center;" vertex="1" parent="1">
          <mxGeometry x="200" y="270" width="100" height="40" as="geometry" />
        </mxCell>
        <mxCell id="5_2LvWP8aWBhBdpa0Kzx-2" value="Barco" style="whiteSpace=wrap;html=1;align=center;" vertex="1" parent="1">
          <mxGeometry x="200" y="450" width="100" height="40" as="geometry" />
        </mxCell>
        <mxCell id="5_2LvWP8aWBhBdpa0Kzx-3" value="Nombre" style="ellipse;whiteSpace=wrap;html=1;align=center;" vertex="1" parent="1">
          <mxGeometry x="320" y="500" width="100" height="40" as="geometry" />
        </mxCell>
        <mxCell id="5_2LvWP8aWBhBdpa0Kzx-4" value="Matrícula" style="ellipse;whiteSpace=wrap;html=1;align=center;fontStyle=4;" vertex="1" parent="1">
          <mxGeometry x="80" y="450" width="100" height="40" as="geometry" />
        </mxCell>
        <mxCell id="5_2LvWP8aWBhBdpa0Kzx-5" value="NAmarre" style="ellipse;whiteSpace=wrap;html=1;align=center;" vertex="1" parent="1">
          <mxGeometry x="320" y="450" width="100" height="40" as="geometry" />
        </mxCell>
        <mxCell id="5_2LvWP8aWBhBdpa0Kzx-6" value="Cuota" style="ellipse;whiteSpace=wrap;html=1;align=center;" vertex="1" parent="1">
          <mxGeometry x="320" y="400" width="100" height="40" as="geometry" />
        </mxCell>
        <mxCell id="5_2LvWP8aWBhBdpa0Kzx-10" value="" style="endArrow=none;html=1;rounded=0;exitX=1;exitY=0;exitDx=0;exitDy=0;entryX=0;entryY=1;entryDx=0;entryDy=0;" edge="1" parent="1" source="5_2LvWP8aWBhBdpa0Kzx-2" target="5_2LvWP8aWBhBdpa0Kzx-6">
          <mxGeometry relative="1" as="geometry">
            <mxPoint x="460" y="470" as="sourcePoint" />
            <mxPoint x="620" y="470" as="targetPoint" />
          </mxGeometry>
        </mxCell>
        <mxCell id="5_2LvWP8aWBhBdpa0Kzx-11" value="" style="endArrow=none;html=1;rounded=0;exitX=1;exitY=0.5;exitDx=0;exitDy=0;entryX=0;entryY=0.5;entryDx=0;entryDy=0;" edge="1" parent="1" source="5_2LvWP8aWBhBdpa0Kzx-2" target="5_2LvWP8aWBhBdpa0Kzx-5">
          <mxGeometry relative="1" as="geometry">
            <mxPoint x="310" y="480" as="sourcePoint" />
            <mxPoint x="335" y="480" as="targetPoint" />
          </mxGeometry>
        </mxCell>
        <mxCell id="5_2LvWP8aWBhBdpa0Kzx-12" value="" style="endArrow=none;html=1;rounded=0;exitX=1;exitY=1;exitDx=0;exitDy=0;entryX=0;entryY=0;entryDx=0;entryDy=0;" edge="1" parent="1" source="5_2LvWP8aWBhBdpa0Kzx-2" target="5_2LvWP8aWBhBdpa0Kzx-3">
          <mxGeometry relative="1" as="geometry">
            <mxPoint x="260" y="500" as="sourcePoint" />
            <mxPoint x="260" y="540" as="targetPoint" />
          </mxGeometry>
        </mxCell>
        <mxCell id="5_2LvWP8aWBhBdpa0Kzx-13" value="" style="endArrow=none;html=1;rounded=0;exitX=0;exitY=0.5;exitDx=0;exitDy=0;entryX=1;entryY=0.5;entryDx=0;entryDy=0;" edge="1" parent="1" source="5_2LvWP8aWBhBdpa0Kzx-2" target="5_2LvWP8aWBhBdpa0Kzx-4">
          <mxGeometry relative="1" as="geometry">
            <mxPoint x="285" y="500" as="sourcePoint" />
            <mxPoint x="350" y="546" as="targetPoint" />
          </mxGeometry>
        </mxCell>
        <mxCell id="5_2LvWP8aWBhBdpa0Kzx-14" value="" style="endArrow=none;html=1;rounded=0;exitX=0.5;exitY=1;exitDx=0;exitDy=0;entryX=0.5;entryY=0;entryDx=0;entryDy=0;" edge="1" parent="1" source="5_2LvWP8aWBhBdpa0Kzx-1" target="5_2LvWP8aWBhBdpa0Kzx-2">
          <mxGeometry relative="1" as="geometry">
            <mxPoint x="200" y="390" as="sourcePoint" />
            <mxPoint x="360" y="390" as="targetPoint" />
          </mxGeometry>
        </mxCell>
        <mxCell id="5_2LvWP8aWBhBdpa0Kzx-15" value="N" style="resizable=0;html=1;whiteSpace=wrap;align=right;verticalAlign=bottom;" connectable="0" vertex="1" parent="5_2LvWP8aWBhBdpa0Kzx-14">
          <mxGeometry x="1" relative="1" as="geometry" />
        </mxCell>
        <mxCell id="5_2LvWP8aWBhBdpa0Kzx-16" value="&lt;font style=&quot;font-size: 13px;&quot;&gt;1&lt;/font&gt;" style="text;html=1;align=center;verticalAlign=middle;whiteSpace=wrap;rounded=0;" vertex="1" parent="1">
          <mxGeometry x="215" y="307" width="60" height="30" as="geometry" />
        </mxCell>
        <mxCell id="5_2LvWP8aWBhBdpa0Kzx-19" value="Tiene" style="shape=rhombus;perimeter=rhombusPerimeter;whiteSpace=wrap;html=1;align=center;" vertex="1" parent="1">
          <mxGeometry x="190" y="350" width="120" height="60" as="geometry" />
        </mxCell>
        <mxCell id="5_2LvWP8aWBhBdpa0Kzx-20" value="IdDueño" style="ellipse;whiteSpace=wrap;html=1;align=center;dashed=1;" vertex="1" parent="1">
          <mxGeometry x="80" y="400" width="100" height="40" as="geometry" />
        </mxCell>
        <mxCell id="5_2LvWP8aWBhBdpa0Kzx-21" value="" style="endArrow=none;html=1;rounded=0;exitX=1;exitY=1;exitDx=0;exitDy=0;entryX=0;entryY=0;entryDx=0;entryDy=0;" edge="1" parent="1" source="5_2LvWP8aWBhBdpa0Kzx-20" target="5_2LvWP8aWBhBdpa0Kzx-2">
          <mxGeometry relative="1" as="geometry">
            <mxPoint x="285" y="500" as="sourcePoint" />
            <mxPoint x="350" y="546" as="targetPoint" />
          </mxGeometry>
        </mxCell>
        <mxCell id="5_2LvWP8aWBhBdpa0Kzx-22" value="Salida" style="whiteSpace=wrap;html=1;align=center;" vertex="1" parent="1">
          <mxGeometry x="200" y="620" width="100" height="40" as="geometry" />
        </mxCell>
        <mxCell id="5_2LvWP8aWBhBdpa0Kzx-23" value="" style="endArrow=none;html=1;rounded=0;exitX=0.5;exitY=1;exitDx=0;exitDy=0;entryX=0.5;entryY=0;entryDx=0;entryDy=0;" edge="1" parent="1" source="5_2LvWP8aWBhBdpa0Kzx-2" target="5_2LvWP8aWBhBdpa0Kzx-22">
          <mxGeometry relative="1" as="geometry">
            <mxPoint x="460" y="470" as="sourcePoint" />
            <mxPoint x="620" y="470" as="targetPoint" />
          </mxGeometry>
        </mxCell>
        <mxCell id="5_2LvWP8aWBhBdpa0Kzx-24" value="N" style="resizable=0;html=1;whiteSpace=wrap;align=right;verticalAlign=bottom;" connectable="0" vertex="1" parent="5_2LvWP8aWBhBdpa0Kzx-23">
          <mxGeometry x="1" relative="1" as="geometry" />
        </mxCell>
        <mxCell id="5_2LvWP8aWBhBdpa0Kzx-25" value="&lt;font style=&quot;font-size: 13px;&quot;&gt;1&lt;/font&gt;" style="text;html=1;align=center;verticalAlign=middle;whiteSpace=wrap;rounded=0;" vertex="1" parent="1">
          <mxGeometry x="215" y="486" width="60" height="31" as="geometry" />
        </mxCell>
        <mxCell id="5_2LvWP8aWBhBdpa0Kzx-26" value="Hace" style="shape=rhombus;perimeter=rhombusPerimeter;whiteSpace=wrap;html=1;align=center;" vertex="1" parent="1">
          <mxGeometry x="190" y="530" width="120" height="60" as="geometry" />
        </mxCell>
        <mxCell id="5_2LvWP8aWBhBdpa0Kzx-27" value="FechaHoraSalida" style="ellipse;whiteSpace=wrap;html=1;align=center;" vertex="1" parent="1">
          <mxGeometry x="320" y="580" width="100" height="40" as="geometry" />
        </mxCell>
        <mxCell id="5_2LvWP8aWBhBdpa0Kzx-28" value="Destino" style="ellipse;whiteSpace=wrap;html=1;align=center;" vertex="1" parent="1">
          <mxGeometry x="320" y="660" width="100" height="40" as="geometry" />
        </mxCell>
        <mxCell id="5_2LvWP8aWBhBdpa0Kzx-29" value="IdCapitan" style="ellipse;whiteSpace=wrap;html=1;align=center;dashed=1;" vertex="1" parent="1">
          <mxGeometry x="80" y="580" width="100" height="40" as="geometry" />
        </mxCell>
        <mxCell id="5_2LvWP8aWBhBdpa0Kzx-30" value="" style="endArrow=none;html=1;rounded=0;exitX=1;exitY=0.5;exitDx=0;exitDy=0;entryX=0;entryY=0;entryDx=0;entryDy=0;" edge="1" parent="1" source="5_2LvWP8aWBhBdpa0Kzx-29" target="5_2LvWP8aWBhBdpa0Kzx-22">
          <mxGeometry relative="1" as="geometry">
            <mxPoint x="175" y="444" as="sourcePoint" />
            <mxPoint x="210" y="460" as="targetPoint" />
          </mxGeometry>
        </mxCell>
        <mxCell id="5_2LvWP8aWBhBdpa0Kzx-31" value="IdBarco" style="ellipse;whiteSpace=wrap;html=1;align=center;dashed=1;" vertex="1" parent="1">
          <mxGeometry x="80" y="660" width="100" height="40" as="geometry" />
        </mxCell>
        <mxCell id="5_2LvWP8aWBhBdpa0Kzx-33" value="" style="endArrow=none;html=1;rounded=0;exitX=1;exitY=0.5;exitDx=0;exitDy=0;entryX=0;entryY=1;entryDx=0;entryDy=0;" edge="1" parent="1" source="5_2LvWP8aWBhBdpa0Kzx-31" target="5_2LvWP8aWBhBdpa0Kzx-22">
          <mxGeometry relative="1" as="geometry">
            <mxPoint x="175" y="624" as="sourcePoint" />
            <mxPoint x="210" y="630" as="targetPoint" />
          </mxGeometry>
        </mxCell>
        <mxCell id="5_2LvWP8aWBhBdpa0Kzx-34" value="" style="endArrow=none;html=1;rounded=0;exitX=1;exitY=0;exitDx=0;exitDy=0;entryX=0;entryY=0.5;entryDx=0;entryDy=0;" edge="1" parent="1" source="5_2LvWP8aWBhBdpa0Kzx-22" target="5_2LvWP8aWBhBdpa0Kzx-27">
          <mxGeometry relative="1" as="geometry">
            <mxPoint x="310" y="460" as="sourcePoint" />
            <mxPoint x="345" y="444" as="targetPoint" />
          </mxGeometry>
        </mxCell>
        <mxCell id="5_2LvWP8aWBhBdpa0Kzx-35" value="" style="endArrow=none;html=1;rounded=0;exitX=1;exitY=1;exitDx=0;exitDy=0;entryX=0;entryY=0.5;entryDx=0;entryDy=0;" edge="1" parent="1" source="5_2LvWP8aWBhBdpa0Kzx-22" target="5_2LvWP8aWBhBdpa0Kzx-28">
          <mxGeometry relative="1" as="geometry">
            <mxPoint x="310" y="630" as="sourcePoint" />
            <mxPoint x="330" y="610" as="targetPoint" />
          </mxGeometry>
        </mxCell>
        <mxCell id="5_2LvWP8aWBhBdpa0Kzx-36" value="" style="endArrow=none;html=1;rounded=0;exitX=1;exitY=0.5;exitDx=0;exitDy=0;entryX=0;entryY=0.5;entryDx=0;entryDy=0;" edge="1" parent="1" source="5_2LvWP8aWBhBdpa0Kzx-22" target="5_2LvWP8aWBhBdpa0Kzx-37">
          <mxGeometry relative="1" as="geometry">
            <mxPoint x="310" y="670" as="sourcePoint" />
            <mxPoint x="480" y="640" as="targetPoint" />
          </mxGeometry>
        </mxCell>
        <mxCell id="5_2LvWP8aWBhBdpa0Kzx-37" value="Capitán es socio?" style="triangle;whiteSpace=wrap;html=1;" vertex="1" parent="1">
          <mxGeometry x="480" y="595" width="90" height="90" as="geometry" />
        </mxCell>
        <mxCell id="5_2LvWP8aWBhBdpa0Kzx-39" value="N" style="text;html=1;align=center;verticalAlign=middle;resizable=0;points=[];autosize=1;strokeColor=none;fillColor=none;" vertex="1" parent="1">
          <mxGeometry x="300" y="616" width="30" height="30" as="geometry" />
        </mxCell>
        <mxCell id="5_2LvWP8aWBhBdpa0Kzx-40" value="" style="endArrow=none;html=1;rounded=0;entryX=1;entryY=0.5;entryDx=0;entryDy=0;exitX=0.5;exitY=0;exitDx=0;exitDy=0;" edge="1" parent="1" source="5_2LvWP8aWBhBdpa0Kzx-37" target="5_2LvWP8aWBhBdpa0Kzx-1">
          <mxGeometry relative="1" as="geometry">
            <mxPoint x="460" y="620" as="sourcePoint" />
            <mxPoint x="620" y="620" as="targetPoint" />
            <Array as="points">
              <mxPoint x="525" y="290" />
            </Array>
          </mxGeometry>
        </mxCell>
        <mxCell id="5_2LvWP8aWBhBdpa0Kzx-41" value="1" style="resizable=0;html=1;whiteSpace=wrap;align=right;verticalAlign=bottom;" connectable="0" vertex="1" parent="5_2LvWP8aWBhBdpa0Kzx-40">
          <mxGeometry x="1" relative="1" as="geometry">
            <mxPoint x="12" as="offset" />
          </mxGeometry>
        </mxCell>
        <mxCell id="5_2LvWP8aWBhBdpa0Kzx-42" value="True" style="text;html=1;align=center;verticalAlign=middle;resizable=0;points=[];autosize=1;strokeColor=none;fillColor=none;" vertex="1" parent="1">
          <mxGeometry x="514" y="596" width="50" height="30" as="geometry" />
        </mxCell>
        <mxCell id="5_2LvWP8aWBhBdpa0Kzx-43" value="" style="endArrow=none;html=1;rounded=0;exitX=0.5;exitY=1;exitDx=0;exitDy=0;entryX=0.5;entryY=0;entryDx=0;entryDy=0;" edge="1" parent="1" source="5_2LvWP8aWBhBdpa0Kzx-37" target="5_2LvWP8aWBhBdpa0Kzx-45">
          <mxGeometry relative="1" as="geometry">
            <mxPoint x="460" y="620" as="sourcePoint" />
            <mxPoint x="525" y="730" as="targetPoint" />
          </mxGeometry>
        </mxCell>
        <mxCell id="5_2LvWP8aWBhBdpa0Kzx-44" value="1" style="resizable=0;html=1;whiteSpace=wrap;align=right;verticalAlign=bottom;" connectable="0" vertex="1" parent="5_2LvWP8aWBhBdpa0Kzx-43">
          <mxGeometry x="1" relative="1" as="geometry" />
        </mxCell>
        <mxCell id="5_2LvWP8aWBhBdpa0Kzx-45" value="Capitan Externo" style="whiteSpace=wrap;html=1;align=center;" vertex="1" parent="1">
          <mxGeometry x="475" y="740" width="100" height="40" as="geometry" />
        </mxCell>
        <mxCell id="5_2LvWP8aWBhBdpa0Kzx-46" value="Id" style="ellipse;whiteSpace=wrap;html=1;align=center;fontStyle=4;" vertex="1" parent="1">
          <mxGeometry x="80" y="210" width="100" height="40" as="geometry" />
        </mxCell>
        <mxCell id="5_2LvWP8aWBhBdpa0Kzx-47" value="" style="endArrow=none;html=1;rounded=0;exitX=1;exitY=1;exitDx=0;exitDy=0;entryX=0;entryY=0;entryDx=0;entryDy=0;" edge="1" parent="1" source="5_2LvWP8aWBhBdpa0Kzx-46" target="5_2LvWP8aWBhBdpa0Kzx-1">
          <mxGeometry relative="1" as="geometry">
            <mxPoint x="175" y="454" as="sourcePoint" />
            <mxPoint x="210" y="450" as="targetPoint" />
          </mxGeometry>
        </mxCell>
        <mxCell id="5_2LvWP8aWBhBdpa0Kzx-48" value="Nombre" style="ellipse;whiteSpace=wrap;html=1;align=center;" vertex="1" parent="1">
          <mxGeometry x="200" y="210" width="100" height="40" as="geometry" />
        </mxCell>
        <mxCell id="5_2LvWP8aWBhBdpa0Kzx-49" value="" style="endArrow=none;html=1;rounded=0;exitX=0.5;exitY=1;exitDx=0;exitDy=0;entryX=0.5;entryY=0;entryDx=0;entryDy=0;" edge="1" parent="1" source="5_2LvWP8aWBhBdpa0Kzx-48" target="5_2LvWP8aWBhBdpa0Kzx-1">
          <mxGeometry relative="1" as="geometry">
            <mxPoint x="175" y="254" as="sourcePoint" />
            <mxPoint x="210" y="280" as="targetPoint" />
          </mxGeometry>
        </mxCell>
        <mxCell id="5_2LvWP8aWBhBdpa0Kzx-50" value="Telefono" style="ellipse;whiteSpace=wrap;html=1;align=center;" vertex="1" parent="1">
          <mxGeometry x="80" y="270" width="100" height="40" as="geometry" />
        </mxCell>
        <mxCell id="5_2LvWP8aWBhBdpa0Kzx-51" value="" style="endArrow=none;html=1;rounded=0;exitX=1;exitY=0.5;exitDx=0;exitDy=0;entryX=0;entryY=0.5;entryDx=0;entryDy=0;" edge="1" parent="1" source="5_2LvWP8aWBhBdpa0Kzx-50" target="5_2LvWP8aWBhBdpa0Kzx-1">
          <mxGeometry relative="1" as="geometry">
            <mxPoint x="175" y="254" as="sourcePoint" />
            <mxPoint x="210" y="280" as="targetPoint" />
          </mxGeometry>
        </mxCell>
        <mxCell id="5_2LvWP8aWBhBdpa0Kzx-52" value="Cuota Socio" style="ellipse;whiteSpace=wrap;html=1;align=center;" vertex="1" parent="1">
          <mxGeometry x="80" y="320" width="100" height="40" as="geometry" />
        </mxCell>
        <mxCell id="5_2LvWP8aWBhBdpa0Kzx-53" value="" style="endArrow=none;html=1;rounded=0;exitX=1;exitY=0;exitDx=0;exitDy=0;entryX=0;entryY=1;entryDx=0;entryDy=0;" edge="1" parent="1" source="5_2LvWP8aWBhBdpa0Kzx-52" target="5_2LvWP8aWBhBdpa0Kzx-1">
          <mxGeometry relative="1" as="geometry">
            <mxPoint x="175" y="254" as="sourcePoint" />
            <mxPoint x="210" y="280" as="targetPoint" />
          </mxGeometry>
        </mxCell>
        <mxCell id="5_2LvWP8aWBhBdpa0Kzx-54" value="&lt;span style=&quot;border-bottom: 1px dotted&quot;&gt;IdCapitan+IdBarco+FechaHoraSalida&lt;/span&gt;" style="ellipse;whiteSpace=wrap;html=1;align=center;" vertex="1" parent="1">
          <mxGeometry x="140" y="720" width="220" height="40" as="geometry" />
        </mxCell>
        <mxCell id="5_2LvWP8aWBhBdpa0Kzx-55" value="" style="endArrow=none;html=1;rounded=0;exitX=0.5;exitY=1;exitDx=0;exitDy=0;entryX=0.5;entryY=0;entryDx=0;entryDy=0;" edge="1" parent="1" source="5_2LvWP8aWBhBdpa0Kzx-22" target="5_2LvWP8aWBhBdpa0Kzx-54">
          <mxGeometry relative="1" as="geometry">
            <mxPoint x="310" y="670" as="sourcePoint" />
            <mxPoint x="330" y="690" as="targetPoint" />
          </mxGeometry>
        </mxCell>
        <mxCell id="5_2LvWP8aWBhBdpa0Kzx-56" value="False" style="text;html=1;align=center;verticalAlign=middle;resizable=0;points=[];autosize=1;strokeColor=none;fillColor=none;" vertex="1" parent="1">
          <mxGeometry x="514" y="655" width="50" height="30" as="geometry" />
        </mxCell>
        <mxCell id="5_2LvWP8aWBhBdpa0Kzx-57" value="Id" style="ellipse;whiteSpace=wrap;html=1;align=center;fontStyle=4;" vertex="1" parent="1">
          <mxGeometry x="590" y="690" width="100" height="40" as="geometry" />
        </mxCell>
        <mxCell id="5_2LvWP8aWBhBdpa0Kzx-58" value="Nombre" style="ellipse;whiteSpace=wrap;html=1;align=center;" vertex="1" parent="1">
          <mxGeometry x="590" y="740" width="100" height="40" as="geometry" />
        </mxCell>
        <mxCell id="5_2LvWP8aWBhBdpa0Kzx-59" value="Telefono" style="ellipse;whiteSpace=wrap;html=1;align=center;" vertex="1" parent="1">
          <mxGeometry x="590" y="790" width="100" height="40" as="geometry" />
        </mxCell>
        <mxCell id="5_2LvWP8aWBhBdpa0Kzx-60" value="" style="endArrow=none;html=1;rounded=0;exitX=0;exitY=1;exitDx=0;exitDy=0;entryX=1;entryY=0;entryDx=0;entryDy=0;" edge="1" parent="1" source="5_2LvWP8aWBhBdpa0Kzx-57" target="5_2LvWP8aWBhBdpa0Kzx-45">
          <mxGeometry relative="1" as="geometry">
            <mxPoint x="175" y="244" as="sourcePoint" />
            <mxPoint x="210" y="270" as="targetPoint" />
          </mxGeometry>
        </mxCell>
        <mxCell id="5_2LvWP8aWBhBdpa0Kzx-61" value="" style="endArrow=none;html=1;rounded=0;exitX=0;exitY=0.5;exitDx=0;exitDy=0;entryX=1;entryY=0.5;entryDx=0;entryDy=0;" edge="1" parent="1" source="5_2LvWP8aWBhBdpa0Kzx-58" target="5_2LvWP8aWBhBdpa0Kzx-45">
          <mxGeometry relative="1" as="geometry">
            <mxPoint x="615" y="734" as="sourcePoint" />
            <mxPoint x="585" y="750" as="targetPoint" />
          </mxGeometry>
        </mxCell>
        <mxCell id="5_2LvWP8aWBhBdpa0Kzx-62" value="" style="endArrow=none;html=1;rounded=0;exitX=0;exitY=0.5;exitDx=0;exitDy=0;entryX=1;entryY=1;entryDx=0;entryDy=0;" edge="1" parent="1" source="5_2LvWP8aWBhBdpa0Kzx-59" target="5_2LvWP8aWBhBdpa0Kzx-45">
          <mxGeometry relative="1" as="geometry">
            <mxPoint x="600" y="770" as="sourcePoint" />
            <mxPoint x="585" y="770" as="targetPoint" />
          </mxGeometry>
        </mxCell>
      </root>
    </mxGraphModel>
  </diagram>
</mxfile>
